<svg width="119" height="48" viewBox="0 0 119 48" fill="none" xmlns="http://www.w3.org/2000/svg">
<path d="M69.9176 21.6562H66.1847C66.1165 21.1733 65.9773 20.7443 65.767 20.3693C65.5568 19.9886 65.2869 19.6648 64.9574 19.3977C64.6278 19.1307 64.2472 18.9261 63.8153 18.7841C63.3892 18.642 62.9261 18.571 62.4261 18.571C61.5227 18.571 60.7358 18.7955 60.0653 19.2443C59.3949 19.6875 58.875 20.3352 58.5057 21.1875C58.1364 22.0341 57.9517 23.0625 57.9517 24.2727C57.9517 25.517 58.1364 26.5625 58.5057 27.4091C58.8807 28.2557 59.4034 28.8949 60.0739 29.3267C60.7443 29.7585 61.5199 29.9744 62.4006 29.9744C62.8949 29.9744 63.3523 29.9091 63.7727 29.7784C64.1989 29.6477 64.5767 29.4574 64.9062 29.2074C65.2358 28.9517 65.5085 28.642 65.7244 28.2784C65.946 27.9148 66.0994 27.5 66.1847 27.0341L69.9176 27.0511C69.821 27.8523 69.5795 28.625 69.1932 29.3693C68.8125 30.108 68.2983 30.7699 67.6506 31.3551C67.0085 31.9347 66.2415 32.3949 65.3494 32.7358C64.4631 33.071 63.4602 33.2386 62.3409 33.2386C60.7841 33.2386 59.392 32.8864 58.1648 32.1818C56.9432 31.4773 55.9773 30.4574 55.267 29.1222C54.5625 27.7869 54.2102 26.1705 54.2102 24.2727C54.2102 22.3693 54.5682 20.75 55.2841 19.4148C56 18.0795 56.9716 17.0625 58.1989 16.3636C59.4261 15.6591 60.8068 15.3068 62.3409 15.3068C63.3523 15.3068 64.2898 15.4489 65.1534 15.733C66.0227 16.017 66.7926 16.4318 67.4631 16.9773C68.1335 17.517 68.679 18.179 69.0994 18.9631C69.5256 19.7472 69.7983 20.6449 69.9176 21.6562ZM71.8991 18.5881V15.5455H86.2344V18.5881H80.8906V33H77.2429V18.5881H71.8991ZM89.4709 33H85.5163L91.5419 15.5455H96.2976L102.315 33H98.3601L93.9879 19.5341H93.8516L89.4709 33ZM89.2237 26.1392H98.5646V29.0199H89.2237V26.1392ZM104.415 33V15.5455H111.404C112.688 15.5455 113.759 15.7358 114.617 16.1165C115.475 16.4972 116.12 17.0256 116.552 17.7017C116.984 18.3722 117.2 19.1449 117.2 20.0199C117.2 20.7017 117.063 21.3011 116.79 21.8182C116.518 22.3295 116.143 22.75 115.665 23.0795C115.194 23.4034 114.654 23.6335 114.046 23.7699V23.9403C114.711 23.9687 115.333 24.1562 115.913 24.5028C116.498 24.8494 116.972 25.3352 117.336 25.9602C117.7 26.5795 117.881 27.3182 117.881 28.1761C117.881 29.1023 117.651 29.929 117.191 30.6562C116.737 31.3778 116.063 31.9489 115.171 32.3693C114.279 32.7898 113.18 33 111.873 33H104.415ZM108.106 29.983H111.114C112.143 29.983 112.893 29.7869 113.364 29.3949C113.836 28.9972 114.072 28.4687 114.072 27.8097C114.072 27.3267 113.955 26.9006 113.722 26.5312C113.489 26.1619 113.157 25.8722 112.725 25.6619C112.299 25.4517 111.79 25.3466 111.2 25.3466H108.106V29.983ZM108.106 22.8494H110.842C111.347 22.8494 111.796 22.7614 112.188 22.5852C112.586 22.4034 112.898 22.1477 113.126 21.8182C113.359 21.4886 113.475 21.0938 113.475 20.6335C113.475 20.0028 113.251 19.4943 112.802 19.108C112.359 18.7216 111.728 18.5284 110.91 18.5284H108.106V22.8494Z" fill="#1B6673"/>
<rect width="48" height="48" rx="10" fill="#1B6673"/>
<path d="M17.2784 22.4375H14.7898C14.7443 22.1155 14.6515 21.8295 14.5114 21.5795C14.3712 21.3258 14.1913 21.1098 13.9716 20.9318C13.7519 20.7538 13.4981 20.6174 13.2102 20.5227C12.9261 20.428 12.6174 20.3807 12.2841 20.3807C11.6818 20.3807 11.1572 20.5303 10.7102 20.8295C10.2633 21.125 9.91667 21.5568 9.67045 22.125C9.42424 22.6894 9.30114 23.375 9.30114 24.1818C9.30114 25.0114 9.42424 25.7083 9.67045 26.2727C9.92045 26.8371 10.2689 27.2633 10.7159 27.5511C11.1629 27.839 11.6799 27.983 12.267 27.983C12.5966 27.983 12.9015 27.9394 13.1818 27.8523C13.4659 27.7652 13.7178 27.6383 13.9375 27.4716C14.1572 27.3011 14.339 27.0947 14.483 26.8523C14.6307 26.6098 14.733 26.3333 14.7898 26.0227L17.2784 26.0341C17.214 26.5682 17.053 27.0833 16.7955 27.5795C16.5417 28.072 16.1989 28.5133 15.767 28.9034C15.339 29.2898 14.8277 29.5966 14.233 29.8239C13.642 30.0473 12.9735 30.1591 12.2273 30.1591C11.1894 30.1591 10.2614 29.9242 9.44318 29.4545C8.62879 28.9848 7.98485 28.3049 7.51136 27.4148C7.04167 26.5246 6.80682 25.447 6.80682 24.1818C6.80682 22.9129 7.04545 21.8333 7.52273 20.9432C8 20.053 8.64773 19.375 9.46591 18.9091C10.2841 18.4394 11.2045 18.2045 12.2273 18.2045C12.9015 18.2045 13.5265 18.2992 14.1023 18.4886C14.6818 18.678 15.1951 18.9545 15.642 19.3182C16.089 19.678 16.4527 20.1193 16.733 20.642C17.017 21.1648 17.1989 21.7633 17.2784 22.4375ZM27.3324 23.3239V25.2955H22.3153V23.3239H27.3324ZM18.8494 26.1875H21.2983C21.34 26.8542 21.5483 27.3561 21.9233 27.6932C22.2983 28.0303 22.8532 28.1989 23.5881 28.1989C24.1866 28.1989 24.6619 28.0587 25.0142 27.7784C25.3665 27.4981 25.6203 27.0947 25.7756 26.5682C25.9309 26.0379 26.0085 25.4034 26.0085 24.6648V23.7216C26.0085 22.9602 25.9195 22.3182 25.7415 21.7955C25.5672 21.2689 25.3002 20.8712 24.9403 20.6023C24.5843 20.3333 24.1278 20.1989 23.571 20.1989C23.0218 20.1989 22.5862 20.2822 22.2642 20.4489C21.9422 20.6155 21.7074 20.8542 21.5597 21.1648C21.4119 21.4716 21.321 21.8428 21.2869 22.2784H18.8381C18.9138 21.5133 19.1335 20.8239 19.4972 20.2102C19.8646 19.5928 20.3854 19.1042 21.0597 18.7443C21.7377 18.3845 22.5748 18.2045 23.571 18.2045C24.5597 18.2045 25.4176 18.4299 26.1449 18.8807C26.8722 19.3314 27.4347 19.9697 27.8324 20.7955C28.2301 21.6212 28.429 22.5985 28.429 23.7273V24.6705C28.429 25.7992 28.2339 26.7746 27.8438 27.5966C27.4574 28.4148 26.9025 29.0473 26.179 29.4943C25.4555 29.9375 24.5919 30.1591 23.5881 30.1591C22.6297 30.1591 21.8078 29.9924 21.1222 29.6591C20.4366 29.322 19.9006 28.8561 19.5142 28.2614C19.1278 27.6629 18.9063 26.9716 18.8494 26.1875ZM29.6151 32.8068V28.0398H30.4048C30.6738 27.8466 30.92 27.5739 31.1435 27.2216C31.367 26.8655 31.5582 26.375 31.7173 25.75C31.8764 25.1212 31.9901 24.2992 32.0582 23.2841L32.3878 18.3636H40.0866V28.0398H41.3594V32.7955H38.9957V30H31.9787V32.8068H29.6151ZM33.2457 28.0398H37.723V20.392H34.6037L34.4219 23.2841C34.3726 24.053 34.2912 24.7348 34.1776 25.3295C34.0677 25.9242 33.9332 26.4451 33.7741 26.892C33.6188 27.3352 33.4427 27.7178 33.2457 28.0398Z" fill="#F5F5F5"/>
</svg>
